<svg id="Capa_1" enable-background="new 0 0 512 512" height="512" viewBox="0 0 512 512" width="512" xmlns="http://www.w3.org/2000/svg" xmlns:xlink="http://www.w3.org/1999/xlink"><linearGradient id="SVGID_1_" gradientUnits="userSpaceOnUse" x1="256" x2="256" y1="421" y2="91"><stop offset="0" stop-color="#ffbef9"/><stop offset="1" stop-color="#fff1ff"/></linearGradient><linearGradient id="SVGID_2_" gradientUnits="userSpaceOnUse" x1="256" x2="256" y1="512" y2="0"><stop offset="0" stop-color="#a93aff"/><stop offset="1" stop-color="#ff81ff"/></linearGradient><g><g><g><circle cx="256" cy="256" fill="url(#SVGID_1_)" r="165"/></g></g><g><g><path d="m497 241h-16.76c-7.443-112.092-97.148-201.797-209.24-209.24v-16.76c0-8.291-6.709-15-15-15s-15 6.709-15 15v16.76c-112.092 7.443-201.797 97.148-209.24 209.24h-16.76c-8.291 0-15 6.709-15 15s6.709 15 15 15h16.76c7.443 112.092 97.148 201.797 209.24 209.24v16.76c0 8.291 6.709 15 15 15s15-6.709 15-15v-16.76c112.092-7.443 201.797-97.148 209.24-209.24h16.76c8.291 0 15-6.709 15-15s-6.709-15-15-15zm-91 30 44.24-.01c-7.328 95.548-83.692 171.922-179.24 179.25v-44.24c0-8.291-6.709-15-15-15s-15 6.709-15 15v44.24c-95.548-7.328-171.912-83.692-179.24-179.24h44.24c8.291 0 15-6.709 15-15s-6.709-15-15-15h-44.24c7.328-95.548 83.692-171.912 179.24-179.24v44.24c0 8.291 6.709 15 15 15s15-6.709 15-15v-44.24c95.548 7.328 171.912 83.692 179.24 179.24h-44.24c-8.291 0-15 6.709-15 15s6.709 15 15 15zm-150-90c-41.367 0-75 33.647-75 75s33.633 75 75 75 75-33.647 75-75-33.633-75-75-75z" fill="url(#SVGID_2_)"/></g></g></g></svg>